<svg id="Calque_1" data-name="Calque 1" xmlns="http://www.w3.org/2000/svg" xmlns:xlink="http://www.w3.org/1999/xlink" viewBox="0 0 48.89 32.97"><defs><style>.cls-1{fill:#c97833;}.cls-2{fill:url(#Dégradé_sans_nom_15);}.cls-3{fill:url(#Dégradé_sans_nom_15-2);}.cls-4{fill:url(#Dégradé_sans_nom_15-3);}.cls-5{fill:url(#Dégradé_sans_nom_15-4);}.cls-6{fill:url(#Dégradé_sans_nom_15-5);}.cls-7{fill:url(#Dégradé_sans_nom_15-6);}.cls-8{fill:url(#Dégradé_sans_nom_15-7);}.cls-9{fill:url(#Dégradé_sans_nom_15-8);}.cls-10{fill:url(#Dégradé_sans_nom_15-9);}.cls-11{fill:url(#Dégradé_sans_nom_15-10);}.cls-12{fill:url(#Dégradé_sans_nom_15-11);}.cls-13{fill:url(#Dégradé_sans_nom_15-12);}</style><linearGradient id="Dégradé_sans_nom_15" x1="22.74" y1="13.79" x2="35.22" y2="9.49" gradientUnits="userSpaceOnUse"><stop offset="0.09" stop-color="#3fac4d"/><stop offset="0.29" stop-color="#4eae33"/><stop offset="0.38" stop-color="#58ac31"/><stop offset="0.49" stop-color="#60aa30"/><stop offset="0.68" stop-color="#9abf2c"/><stop offset="0.89" stop-color="#b2b32b"/><stop offset="0.91" stop-color="#b5b22b"/></linearGradient><linearGradient id="Dégradé_sans_nom_15-2" x1="18.84" y1="15.2" x2="30.66" y2="11.13" xlink:href="#Dégradé_sans_nom_15"/><linearGradient id="Dégradé_sans_nom_15-3" x1="14.81" y1="16.66" x2="26.68" y2="12.57" xlink:href="#Dégradé_sans_nom_15"/><linearGradient id="Dégradé_sans_nom_15-4" x1="57.63" y1="17.49" x2="67.76" y2="14" xlink:href="#Dégradé_sans_nom_15"/><linearGradient id="Dégradé_sans_nom_15-5" x1="5.97" y1="19.85" x2="18.45" y2="15.55" xlink:href="#Dégradé_sans_nom_15"/><linearGradient id="Dégradé_sans_nom_15-6" x1="10.51" y1="18.21" x2="22.68" y2="14.02" xlink:href="#Dégradé_sans_nom_15"/><linearGradient id="Dégradé_sans_nom_15-7" x1="21.33" y1="29.11" x2="31.24" y2="25.7" xlink:href="#Dégradé_sans_nom_15"/><linearGradient id="Dégradé_sans_nom_15-8" x1="62.58" y1="17.53" x2="69.35" y2="15.19" xlink:href="#Dégradé_sans_nom_15"/><linearGradient id="Dégradé_sans_nom_15-9" x1="27.28" y1="12.15" x2="39.45" y2="7.96" xlink:href="#Dégradé_sans_nom_15"/><linearGradient id="Dégradé_sans_nom_15-10" x1="24.12" y1="28.9" x2="35.41" y2="25.01" xlink:href="#Dégradé_sans_nom_15"/><linearGradient id="Dégradé_sans_nom_15-11" x1="20.25" y1="27.59" x2="26.1" y2="25.58" xlink:href="#Dégradé_sans_nom_15"/><linearGradient id="Dégradé_sans_nom_15-12" x1="53.18" y1="18.43" x2="64.9" y2="14.39" xlink:href="#Dégradé_sans_nom_15"/></defs><path class="cls-1" d="M70.12,18.79h0a7.58,7.58,0,0,0-3.55-4.66,8.4,8.4,0,0,1,.53,1.38h0c1.14,4-.64,8.22-4,9.42L29.23,37.19a5.53,5.53,0,0,1-4.57-.39c1.5,3.12,4.66,4.73,7.59,3.67l33.9-12.25C69.48,27,71.27,22.79,70.12,18.79Z" transform="translate(-21.58 -7.83)"/><polygon class="cls-2" points="31.52 2.74 29.3 3.54 26.91 20.38 29.14 19.57 31.52 2.74"/><polygon class="cls-3" points="27.03 4.36 25.31 4.98 22.93 21.82 24.64 21.2 27.03 4.36"/><polygon class="cls-4" points="23.04 5.8 21.28 6.44 18.9 23.27 20.66 22.64 23.04 5.8"/><path class="cls-5" d="M63.45,8.14,61.27,23.58,62.86,23l2-14.16A5.83,5.83,0,0,0,63.45,8.14Z" transform="translate(-21.58 -7.83)"/><polygon class="cls-6" points="10.14 26.44 12.37 25.64 14.75 8.8 12.53 9.61 10.14 26.44"/><polygon class="cls-7" points="19.01 7.26 17.02 7.98 14.64 24.82 16.63 24.09 19.01 7.26"/><path class="cls-8" d="M25.92,34.71l2.14-15.09-1.68.61L24.46,33.8A6.58,6.58,0,0,0,25.92,34.71Z" transform="translate(-21.58 -7.83)"/><path class="cls-9" d="M67.9,13.2a8.5,8.5,0,0,0-1.15-2.47L65.15,22C67.68,20.31,68.9,16.67,67.9,13.2Z" transform="translate(-21.58 -7.83)"/><polygon class="cls-10" points="35.78 1.2 33.79 1.92 31.41 18.75 33.4 18.03 35.78 1.2"/><path class="cls-11" d="M31.83,18.25l-1.5.55L28,35.2a5.58,5.58,0,0,0,1.46-.15Z" transform="translate(-21.58 -7.83)"/><path class="cls-12" d="M24.05,21.5a8.17,8.17,0,0,0-2.13,8.32,8.45,8.45,0,0,0,.71,1.74Z" transform="translate(-21.58 -7.83)"/><path class="cls-13" d="M61.35,7.83a5.35,5.35,0,0,0-1.56.32l-.17,0L57.24,25,59,24.4Z" transform="translate(-21.58 -7.83)"/></svg>